<?xml version="1.0" encoding="UTF-8" standalone="no"?>
<!DOCTYPE svg PUBLIC "-//W3C//DTD SVG 1.1//EN"
 "http://www.w3.org/Graphics/SVG/1.1/DTD/svg11.dtd">
<!-- Generated by graphviz version 2.38.0 (20140413.2041)
 -->
<!-- Title: controllers_diagram Pages: 1 -->
<svg width="531pt" height="416pt"
 viewBox="0.00 0.00 530.95 416.00" xmlns="http://www.w3.org/2000/svg" xmlns:xlink="http://www.w3.org/1999/xlink">
<g id="graph0" class="graph" transform="scale(1 1) rotate(0) translate(214.266 307.5)">
<title>controllers_diagram</title>
<polygon fill="none" stroke="none" points="-214.266,108.5 -214.266,-307.5 316.688,-307.5 316.688,108.5 -214.266,108.5"/>
<!-- _diagram_info -->
<g id="node1" class="node"><title>_diagram_info</title>
<text text-anchor="start" x="113.312" y="45.9" font-family="Times,serif" font-size="13.00">Controllers diagram</text>
<text text-anchor="start" x="113.312" y="58.9" font-family="Times,serif" font-size="13.00">Date: Sep 18 2016 &#45; 09:57</text>
<text text-anchor="start" x="113.312" y="71.9" font-family="Times,serif" font-size="13.00">Migration version: 20160725145314</text>
<text text-anchor="start" x="113.312" y="84.9" font-family="Times,serif" font-size="13.00">Generated by RailRoady 1.5.1</text>
<text text-anchor="start" x="113.312" y="97.9" font-family="Times,serif" font-size="13.00">http://railroady.prestonlee.com</text>
</g>
<!-- Api::V1::CitiesController -->
<g id="node2" class="node"><title>Api::V1::CitiesController</title>
<path fill="none" stroke="black" d="M117.059,-1C117.059,-1 252.941,-1 252.941,-1 258.941,-1 264.941,-7 264.941,-13 264.941,-13 264.941,-81 264.941,-81 264.941,-87 258.941,-93 252.941,-93 252.941,-93 117.059,-93 117.059,-93 111.059,-93 105.059,-87 105.059,-81 105.059,-81 105.059,-13 105.059,-13 105.059,-7 111.059,-1 117.059,-1"/>
<text text-anchor="middle" x="185" y="-77.8" font-family="Times,serif" font-size="14.00">Api::V1::CitiesController</text>
<polyline fill="none" stroke="black" points="105.059,-71 264.941,-71 "/>
<text text-anchor="start" x="113.059" y="-55.8" font-family="Times,serif" font-size="14.00">index</text>
<polyline fill="none" stroke="black" points="105.059,-49 264.941,-49 "/>
<polyline fill="none" stroke="black" points="105.059,-25 264.941,-25 "/>
</g>
<!-- Api::V1::LgasController -->
<g id="node3" class="node"><title>Api::V1::LgasController</title>
<path fill="none" stroke="black" d="M-63.2139,-106C-63.2139,-106 67.2139,-106 67.2139,-106 73.2139,-106 79.2139,-112 79.2139,-118 79.2139,-118 79.2139,-186 79.2139,-186 79.2139,-192 73.2139,-198 67.2139,-198 67.2139,-198 -63.2139,-198 -63.2139,-198 -69.2139,-198 -75.2139,-192 -75.2139,-186 -75.2139,-186 -75.2139,-118 -75.2139,-118 -75.2139,-112 -69.2139,-106 -63.2139,-106"/>
<text text-anchor="middle" x="2" y="-182.8" font-family="Times,serif" font-size="14.00">Api::V1::LgasController</text>
<polyline fill="none" stroke="black" points="-75.2139,-176 79.2139,-176 "/>
<text text-anchor="start" x="-67.2139" y="-160.8" font-family="Times,serif" font-size="14.00">index</text>
<polyline fill="none" stroke="black" points="-75.2139,-154 79.2139,-154 "/>
<polyline fill="none" stroke="black" points="-75.2139,-130 79.2139,-130 "/>
</g>
<!-- Api::V1::StatesController -->
<g id="node4" class="node"><title>Api::V1::StatesController</title>
<path fill="none" stroke="black" d="M-78.3276,89C-78.3276,89 58.3276,89 58.3276,89 64.3276,89 70.3276,83 70.3276,77 70.3276,77 70.3276,-59 70.3276,-59 70.3276,-65 64.3276,-71 58.3276,-71 58.3276,-71 -78.3276,-71 -78.3276,-71 -84.3276,-71 -90.3276,-65 -90.3276,-59 -90.3276,-59 -90.3276,77 -90.3276,77 -90.3276,83 -84.3276,89 -78.3276,89"/>
<text text-anchor="middle" x="-10" y="-55.8" font-family="Times,serif" font-size="14.00">Api::V1::StatesController</text>
<polyline fill="none" stroke="black" points="-90.3276,-49 70.3276,-49 "/>
<text text-anchor="start" x="-82.3276" y="-33.8" font-family="Times,serif" font-size="14.00">capital</text>
<text text-anchor="start" x="-82.3276" y="-19.8" font-family="Times,serif" font-size="14.00">cities</text>
<text text-anchor="start" x="-82.3276" y="-5.8" font-family="Times,serif" font-size="14.00">details</text>
<text text-anchor="start" x="-82.3276" y="8.2" font-family="Times,serif" font-size="14.00">index</text>
<text text-anchor="start" x="-82.3276" y="22.2" font-family="Times,serif" font-size="14.00">lgas</text>
<polyline fill="none" stroke="black" points="-90.3276,29 70.3276,29 "/>
<polyline fill="none" stroke="black" points="-90.3276,53 70.3276,53 "/>
<text text-anchor="start" x="-82.3276" y="68.2" font-family="Times,serif" font-size="14.00">set_ng_state</text>
<text text-anchor="start" x="-82.3276" y="82.2" font-family="Times,serif" font-size="14.00">state_params</text>
</g>
<!-- ApplicationController -->
<g id="node5" class="node"><title>ApplicationController</title>
<path fill="none" stroke="black" d="M132.179,-121C132.179,-121 247.821,-121 247.821,-121 253.821,-121 259.821,-127 259.821,-133 259.821,-133 259.821,-203 259.821,-203 259.821,-209 253.821,-215 247.821,-215 247.821,-215 132.179,-215 132.179,-215 126.179,-215 120.179,-209 120.179,-203 120.179,-203 120.179,-133 120.179,-133 120.179,-127 126.179,-121 132.179,-121"/>
<text text-anchor="middle" x="190" y="-199.8" font-family="Times,serif" font-size="14.00">ApplicationController</text>
<polyline fill="none" stroke="black" points="120.179,-193 259.821,-193 "/>
<polyline fill="none" stroke="black" points="120.179,-169 259.821,-169 "/>
<polyline fill="none" stroke="black" points="120.179,-145 259.821,-145 "/>
</g>
<!-- ErrorsController -->
<g id="node6" class="node"><title>ErrorsController</title>
<path fill="none" stroke="black" d="M-198.266,-211C-198.266,-211 -113.734,-211 -113.734,-211 -107.734,-211 -101.734,-217 -101.734,-223 -101.734,-223 -101.734,-291 -101.734,-291 -101.734,-297 -107.734,-303 -113.734,-303 -113.734,-303 -198.266,-303 -198.266,-303 -204.266,-303 -210.266,-297 -210.266,-291 -210.266,-291 -210.266,-223 -210.266,-223 -210.266,-217 -204.266,-211 -198.266,-211"/>
<text text-anchor="middle" x="-156" y="-287.8" font-family="Times,serif" font-size="14.00">ErrorsController</text>
<polyline fill="none" stroke="black" points="-210.266,-281 -101.734,-281 "/>
<text text-anchor="start" x="-202.266" y="-265.8" font-family="Times,serif" font-size="14.00">invalid_route</text>
<polyline fill="none" stroke="black" points="-210.266,-259 -101.734,-259 "/>
<polyline fill="none" stroke="black" points="-210.266,-235 -101.734,-235 "/>
</g>
</g>
</svg>
