<?xml version="1.0" encoding="UTF-8" standalone="no"?>
<!DOCTYPE svg PUBLIC "-//W3C//DTD SVG 1.1//EN"
 "http://www.w3.org/Graphics/SVG/1.1/DTD/svg11.dtd">
<!-- Generated by graphviz version 2.38.0 (20140413.2041)
 -->
<!-- Title: models_diagram Pages: 1 -->
<svg width="573pt" height="587pt"
 viewBox="0.00 0.00 572.96 587.00" xmlns="http://www.w3.org/2000/svg" xmlns:xlink="http://www.w3.org/1999/xlink">
<g id="graph0" class="graph" transform="scale(1 1) rotate(0) translate(4 583)">
<title>models_diagram</title>
<polygon fill="none" stroke="none" points="-4,4 -4,-583 568.956,-583 568.956,4 -4,4"/>

<!-- Area -->
<g id="node2" class="node"><title>Area</title>
<path fill="none" stroke="black" d="M350.155,-123.5C350.155,-123.5 434.304,-123.5 434.304,-123.5 440.304,-123.5 446.304,-129.5 446.304,-135.5 446.304,-135.5 446.304,-183.5 446.304,-183.5 446.304,-189.5 440.304,-195.5 434.304,-195.5 434.304,-195.5 350.155,-195.5 350.155,-195.5 344.155,-195.5 338.155,-189.5 338.155,-183.5 338.155,-183.5 338.155,-135.5 338.155,-135.5 338.155,-129.5 344.155,-123.5 350.155,-123.5"/>
<text text-anchor="middle" x="392.229" y="-180.3" font-family="Times,serif" font-size="14.00">Area</text>
<polyline fill="none" stroke="black" points="338.155,-173.5 446.304,-173.5 "/>
<text text-anchor="start" x="346.155" y="-158.3" font-family="Times,serif" font-size="14.00">id :INTEGER</text>
<text text-anchor="start" x="346.155" y="-144.3" font-family="Times,serif" font-size="14.00">town_id :integer</text>
<text text-anchor="start" x="346.155" y="-130.3" font-family="Times,serif" font-size="14.00">name :varchar</text>
</g>
<!-- PostCode -->
<g id="node3" class="node"><title>PostCode</title>
<path fill="none" stroke="black" d="M352.503,-0.5C352.503,-0.5 431.956,-0.5 431.956,-0.5 437.956,-0.5 443.956,-6.5 443.956,-12.5 443.956,-12.5 443.956,-74.5 443.956,-74.5 443.956,-80.5 437.956,-86.5 431.956,-86.5 431.956,-86.5 352.503,-86.5 352.503,-86.5 346.503,-86.5 340.503,-80.5 340.503,-74.5 340.503,-74.5 340.503,-12.5 340.503,-12.5 340.503,-6.5 346.503,-0.5 352.503,-0.5"/>
<text text-anchor="middle" x="392.229" y="-71.3" font-family="Times,serif" font-size="14.00">PostCode</text>
<polyline fill="none" stroke="black" points="340.503,-64.5 443.956,-64.5 "/>
<text text-anchor="start" x="348.503" y="-49.3" font-family="Times,serif" font-size="14.00">id :INTEGER</text>
<text text-anchor="start" x="348.503" y="-35.3" font-family="Times,serif" font-size="14.00">area_id :integer</text>
<text text-anchor="start" x="348.503" y="-21.3" font-family="Times,serif" font-size="14.00">code :integer</text>
<text text-anchor="start" x="348.503" y="-7.3" font-family="Times,serif" font-size="14.00">streets :text</text>
</g>
<!-- Area&#45;&gt;PostCode -->
<g id="edge2" class="edge"><title>Area&#45;&gt;PostCode</title>
<path fill="none" stroke="#066ad0" d="M392.229,-115.258C392.229,-108.492 392.229,-101.45 392.229,-94.5465"/>
<ellipse fill="none" stroke="#066ad0" cx="392.23" cy="-119.366" rx="4" ry="4"/>
<ellipse fill="#066ad0" stroke="#066ad0" cx="392.23" cy="-90.5307" rx="4" ry="4"/>
</g>
<!-- Street -->
<g id="node9" class="node"><title>Street</title>
<path fill="none" stroke="black" d="M473.503,-7.5C473.503,-7.5 552.956,-7.5 552.956,-7.5 558.956,-7.5 564.956,-13.5 564.956,-19.5 564.956,-19.5 564.956,-67.5 564.956,-67.5 564.956,-73.5 558.956,-79.5 552.956,-79.5 552.956,-79.5 473.503,-79.5 473.503,-79.5 467.503,-79.5 461.503,-73.5 461.503,-67.5 461.503,-67.5 461.503,-19.5 461.503,-19.5 461.503,-13.5 467.503,-7.5 473.503,-7.5"/>
<text text-anchor="middle" x="513.229" y="-64.3" font-family="Times,serif" font-size="14.00">Street</text>
<polyline fill="none" stroke="black" points="461.503,-57.5 564.956,-57.5 "/>
<text text-anchor="start" x="469.503" y="-42.3" font-family="Times,serif" font-size="14.00">id :INTEGER</text>
<text text-anchor="start" x="469.503" y="-28.3" font-family="Times,serif" font-size="14.00">area_id :integer</text>
<text text-anchor="start" x="469.503" y="-14.3" font-family="Times,serif" font-size="14.00">name :varchar</text>
</g>
<!-- Area&#45;&gt;Street -->
<g id="edge1" class="edge"><title>Area&#45;&gt;Street</title>
<path fill="none" stroke="#37cd08" d="M435.49,-117.742C446.214,-107.639 457.725,-96.7935 468.516,-86.6268"/>
<ellipse fill="none" stroke="#37cd08" cx="432.432" cy="-120.623" rx="4.00002" ry="4.00002"/>
<polygon fill="#37cd08" stroke="#37cd08" points="468.575,-86.5716 478.939,-82.9895 472.214,-83.1429 475.853,-79.7142 475.853,-79.7142 475.853,-79.7142 472.214,-83.1429 472.767,-76.4389 468.575,-86.5716 468.575,-86.5716"/>
</g>
<!-- RuralDistrict -->
<g id="node4" class="node"><title>RuralDistrict</title>
<path fill="none" stroke="black" d="M192.89,-123.5C192.89,-123.5 299.569,-123.5 299.569,-123.5 305.569,-123.5 311.569,-129.5 311.569,-135.5 311.569,-135.5 311.569,-183.5 311.569,-183.5 311.569,-189.5 305.569,-195.5 299.569,-195.5 299.569,-195.5 192.89,-195.5 192.89,-195.5 186.89,-195.5 180.89,-189.5 180.89,-183.5 180.89,-183.5 180.89,-135.5 180.89,-135.5 180.89,-129.5 186.89,-123.5 192.89,-123.5"/>
<text text-anchor="middle" x="246.229" y="-180.3" font-family="Times,serif" font-size="14.00">RuralDistrict</text>
<polyline fill="none" stroke="black" points="180.89,-173.5 311.569,-173.5 "/>
<text text-anchor="start" x="188.89" y="-158.3" font-family="Times,serif" font-size="14.00">id :INTEGER</text>
<text text-anchor="start" x="188.89" y="-144.3" font-family="Times,serif" font-size="14.00">rural_lga_id :integer</text>
<text text-anchor="start" x="188.89" y="-130.3" font-family="Times,serif" font-size="14.00">name :varchar</text>
</g>
<!-- RuralPostCode -->
<g id="node6" class="node"><title>RuralPostCode</title>
<path fill="none" stroke="black" d="M12,-0.5C12,-0.5 140.459,-0.5 140.459,-0.5 146.459,-0.5 152.459,-6.5 152.459,-12.5 152.459,-12.5 152.459,-74.5 152.459,-74.5 152.459,-80.5 146.459,-86.5 140.459,-86.5 140.459,-86.5 12,-86.5 12,-86.5 6,-86.5 0,-80.5 0,-74.5 0,-74.5 0,-12.5 0,-12.5 0,-6.5 6,-0.5 12,-0.5"/>
<text text-anchor="middle" x="76.2295" y="-71.3" font-family="Times,serif" font-size="14.00">RuralPostCode</text>
<polyline fill="none" stroke="black" points="0,-64.5 152.459,-64.5 "/>
<text text-anchor="start" x="8" y="-49.3" font-family="Times,serif" font-size="14.00">id :INTEGER</text>
<text text-anchor="start" x="8" y="-35.3" font-family="Times,serif" font-size="14.00">rural_district_id :integer</text>
<text text-anchor="start" x="8" y="-21.3" font-family="Times,serif" font-size="14.00">code :integer</text>
<text text-anchor="start" x="8" y="-7.3" font-family="Times,serif" font-size="14.00">towns :varchar</text>
</g>
<!-- RuralDistrict&#45;&gt;RuralPostCode -->
<g id="edge4" class="edge"><title>RuralDistrict&#45;&gt;RuralPostCode</title>
<path fill="none" stroke="#173d75" d="M186.813,-118.656C173.495,-109.725 159.253,-100.175 145.572,-91"/>
<ellipse fill="none" stroke="#173d75" cx="190.515" cy="-121.138" rx="4.00002" ry="4.00002"/>
<ellipse fill="#173d75" stroke="#173d75" cx="142.229" cy="-88.7585" rx="4.00002" ry="4.00002"/>
</g>
<!-- RuralTown -->
<g id="node7" class="node"><title>RuralTown</title>
<path fill="none" stroke="black" d="M182,-7.5C182,-7.5 310.459,-7.5 310.459,-7.5 316.459,-7.5 322.459,-13.5 322.459,-19.5 322.459,-19.5 322.459,-67.5 322.459,-67.5 322.459,-73.5 316.459,-79.5 310.459,-79.5 310.459,-79.5 182,-79.5 182,-79.5 176,-79.5 170,-73.5 170,-67.5 170,-67.5 170,-19.5 170,-19.5 170,-13.5 176,-7.5 182,-7.5"/>
<text text-anchor="middle" x="246.229" y="-64.3" font-family="Times,serif" font-size="14.00">RuralTown</text>
<polyline fill="none" stroke="black" points="170,-57.5 322.459,-57.5 "/>
<text text-anchor="start" x="178" y="-42.3" font-family="Times,serif" font-size="14.00">id :INTEGER</text>
<text text-anchor="start" x="178" y="-28.3" font-family="Times,serif" font-size="14.00">rural_district_id :integer</text>
<text text-anchor="start" x="178" y="-14.3" font-family="Times,serif" font-size="14.00">name :varchar</text>
</g>
<!-- RuralDistrict&#45;&gt;RuralTown -->
<g id="edge3" class="edge"><title>RuralDistrict&#45;&gt;RuralTown</title>
<path fill="none" stroke="#0507bd" d="M246.229,-115.037C246.229,-106.827 246.229,-98.2201 246.229,-89.9515"/>
<ellipse fill="none" stroke="#0507bd" cx="246.23" cy="-119.366" rx="4" ry="4"/>
<polygon fill="#0507bd" stroke="#0507bd" points="246.23,-89.7142 250.729,-79.7141 246.23,-84.7142 246.229,-79.7142 246.229,-79.7142 246.229,-79.7142 246.23,-84.7142 241.729,-79.7142 246.23,-89.7142 246.23,-89.7142"/>
</g>
<!-- RuralLga -->
<g id="node5" class="node"><title>RuralLga</title>
<path fill="none" stroke="black" d="M210.328,-232.5C210.328,-232.5 292.131,-232.5 292.131,-232.5 298.131,-232.5 304.131,-238.5 304.131,-244.5 304.131,-244.5 304.131,-292.5 304.131,-292.5 304.131,-298.5 298.131,-304.5 292.131,-304.5 292.131,-304.5 210.328,-304.5 210.328,-304.5 204.328,-304.5 198.328,-298.5 198.328,-292.5 198.328,-292.5 198.328,-244.5 198.328,-244.5 198.328,-238.5 204.328,-232.5 210.328,-232.5"/>
<text text-anchor="middle" x="251.229" y="-289.3" font-family="Times,serif" font-size="14.00">RuralLga</text>
<polyline fill="none" stroke="black" points="198.328,-282.5 304.131,-282.5 "/>
<text text-anchor="start" x="206.328" y="-267.3" font-family="Times,serif" font-size="14.00">id :INTEGER</text>
<text text-anchor="start" x="206.328" y="-253.3" font-family="Times,serif" font-size="14.00">state_id :integer</text>
<text text-anchor="start" x="206.328" y="-239.3" font-family="Times,serif" font-size="14.00">name :varchar</text>
</g>
<!-- RuralLga&#45;&gt;RuralDistrict -->
<g id="edge5" class="edge"><title>RuralLga&#45;&gt;RuralDistrict</title>
<path fill="none" stroke="#40710c" d="M249.208,-224.248C248.923,-218.151 248.63,-211.87 248.343,-205.737"/>
<ellipse fill="none" stroke="#40710c" cx="249.406" cy="-228.469" rx="4" ry="4"/>
<polygon fill="#40710c" stroke="#40710c" points="248.337,-205.604 252.365,-195.404 248.104,-200.609 247.87,-195.615 247.87,-195.615 247.87,-195.615 248.104,-200.609 243.375,-195.825 248.337,-205.604 248.337,-205.604"/>
</g>
<!-- State -->
<g id="node8" class="node"><title>State</title>
<path fill="none" stroke="black" d="M271.941,-341.5C271.941,-341.5 354.518,-341.5 354.518,-341.5 360.518,-341.5 366.518,-347.5 366.518,-353.5 366.518,-353.5 366.518,-457.5 366.518,-457.5 366.518,-463.5 360.518,-469.5 354.518,-469.5 354.518,-469.5 271.941,-469.5 271.941,-469.5 265.941,-469.5 259.941,-463.5 259.941,-457.5 259.941,-457.5 259.941,-353.5 259.941,-353.5 259.941,-347.5 265.941,-341.5 271.941,-341.5"/>
<text text-anchor="middle" x="313.229" y="-454.3" font-family="Times,serif" font-size="14.00">State</text>
<polyline fill="none" stroke="black" points="259.941,-447.5 366.518,-447.5 "/>
<text text-anchor="start" x="267.941" y="-432.3" font-family="Times,serif" font-size="14.00">capital :varchar</text>
<text text-anchor="start" x="267.941" y="-418.3" font-family="Times,serif" font-size="14.00">code :varchar</text>
<text text-anchor="start" x="267.941" y="-404.3" font-family="Times,serif" font-size="14.00">name :varchar</text>
<text text-anchor="start" x="267.941" y="-390.3" font-family="Times,serif" font-size="14.00">id :INTEGER</text>
<text text-anchor="start" x="267.941" y="-376.3" font-family="Times,serif" font-size="14.00">lat :float</text>
<text text-anchor="start" x="267.941" y="-362.3" font-family="Times,serif" font-size="14.00">lng :float</text>
<text text-anchor="start" x="267.941" y="-348.3" font-family="Times,serif" font-size="14.00">zone_id :integer</text>
</g>
<!-- State&#45;&gt;RuralLga -->
<g id="edge7" class="edge"><title>State&#45;&gt;RuralLga</title>
<path fill="none" stroke="#d543fb" d="M280.824,-333.939C277.686,-327.106 274.567,-320.315 271.596,-313.847"/>
<ellipse fill="none" stroke="#d543fb" cx="282.557" cy="-337.713" rx="4.00002" ry="4.00002"/>
<polygon fill="#d543fb" stroke="#d543fb" points="271.539,-313.721 271.454,-302.756 269.452,-309.177 267.365,-304.634 267.365,-304.634 267.365,-304.634 269.452,-309.177 263.276,-306.512 271.539,-313.721 271.539,-313.721"/>
</g>
<!-- Town -->
<g id="node10" class="node"><title>Town</title>
<path fill="none" stroke="black" d="M345.328,-232.5C345.328,-232.5 427.131,-232.5 427.131,-232.5 433.131,-232.5 439.131,-238.5 439.131,-244.5 439.131,-244.5 439.131,-292.5 439.131,-292.5 439.131,-298.5 433.131,-304.5 427.131,-304.5 427.131,-304.5 345.328,-304.5 345.328,-304.5 339.328,-304.5 333.328,-298.5 333.328,-292.5 333.328,-292.5 333.328,-244.5 333.328,-244.5 333.328,-238.5 339.328,-232.5 345.328,-232.5"/>
<text text-anchor="middle" x="386.229" y="-289.3" font-family="Times,serif" font-size="14.00">Town</text>
<polyline fill="none" stroke="black" points="333.328,-282.5 439.131,-282.5 "/>
<text text-anchor="start" x="341.328" y="-267.3" font-family="Times,serif" font-size="14.00">id :INTEGER</text>
<text text-anchor="start" x="341.328" y="-253.3" font-family="Times,serif" font-size="14.00">state_id :integer</text>
<text text-anchor="start" x="341.328" y="-239.3" font-family="Times,serif" font-size="14.00">name :varchar</text>
</g>
<!-- State&#45;&gt;Town -->
<g id="edge6" class="edge"><title>State&#45;&gt;Town</title>
<path fill="none" stroke="#1826db" d="M351.224,-334.236C355.042,-327.175 358.839,-320.154 362.446,-313.484"/>
<ellipse fill="none" stroke="#1826db" cx="349.281" cy="-337.829" rx="4.00002" ry="4.00002"/>
<polygon fill="#1826db" stroke="#1826db" points="362.475,-313.43 371.19,-306.774 364.853,-309.032 367.231,-304.634 367.231,-304.634 367.231,-304.634 364.853,-309.032 363.273,-302.493 362.475,-313.43 362.475,-313.43"/>
</g>
<!-- Town&#45;&gt;Area -->
<g id="edge8" class="edge"><title>Town&#45;&gt;Area</title>
<path fill="none" stroke="#f45275" d="M388.655,-224.248C388.997,-218.151 389.349,-211.87 389.693,-205.737"/>
<ellipse fill="none" stroke="#f45275" cx="388.418" cy="-228.47" rx="4" ry="4"/>
<polygon fill="#f45275" stroke="#f45275" points="389.7,-205.599 394.753,-195.866 389.98,-200.607 390.26,-195.615 390.26,-195.615 390.26,-195.615 389.98,-200.607 385.768,-195.363 389.7,-205.599 389.7,-205.599"/>
</g>
<!-- Zone -->
<g id="node11" class="node"><title>Zone</title>
<path fill="none" stroke="black" d="M277.393,-506.5C277.393,-506.5 349.066,-506.5 349.066,-506.5 355.066,-506.5 361.066,-512.5 361.066,-518.5 361.066,-518.5 361.066,-566.5 361.066,-566.5 361.066,-572.5 355.066,-578.5 349.066,-578.5 349.066,-578.5 277.393,-578.5 277.393,-578.5 271.393,-578.5 265.393,-572.5 265.393,-566.5 265.393,-566.5 265.393,-518.5 265.393,-518.5 265.393,-512.5 271.393,-506.5 277.393,-506.5"/>
<text text-anchor="middle" x="313.229" y="-563.3" font-family="Times,serif" font-size="14.00">Zone</text>
<polyline fill="none" stroke="black" points="265.393,-556.5 361.066,-556.5 "/>
<text text-anchor="start" x="273.393" y="-541.3" font-family="Times,serif" font-size="14.00">id :INTEGER</text>
<text text-anchor="start" x="273.393" y="-527.3" font-family="Times,serif" font-size="14.00">code :varchar</text>
<text text-anchor="start" x="273.393" y="-513.3" font-family="Times,serif" font-size="14.00">name :varchar</text>
</g>
<!-- Zone&#45;&gt;State -->
<g id="edge9" class="edge"><title>Zone&#45;&gt;State</title>
<path fill="none" stroke="#a606a6" d="M313.229,-498.236C313.229,-492.405 313.229,-486.295 313.229,-480.116"/>
<ellipse fill="none" stroke="#a606a6" cx="313.23" cy="-502.383" rx="4" ry="4"/>
<polygon fill="#a606a6" stroke="#a606a6" points="313.23,-479.689 317.729,-469.689 313.23,-474.689 313.229,-469.689 313.229,-469.689 313.229,-469.689 313.23,-474.689 308.729,-469.689 313.23,-479.689 313.23,-479.689"/>
</g>
</g>
</svg>
