<?xml version="1.0" encoding="UTF-8" standalone="no"?>
<!DOCTYPE svg PUBLIC "-//W3C//DTD SVG 1.1//EN"
 "http://www.w3.org/Graphics/SVG/1.1/DTD/svg11.dtd">
<!-- Generated by graphviz version 2.38.0 (20140413.2041)
 -->
<!-- Title: models_diagram Pages: 1 -->
<svg width="446pt" height="369pt"
 viewBox="0.00 0.00 446.42 369.00" xmlns="http://www.w3.org/2000/svg" xmlns:xlink="http://www.w3.org/1999/xlink">
<g id="graph0" class="graph" transform="scale(1 1) rotate(0) translate(4 365)">
<title>models_diagram</title>
<polygon fill="none" stroke="none" points="-4,4 -4,-365 442.422,-365 442.422,4 -4,4"/>

<!-- Area -->
<g id="node2" class="node"><title>Area</title>
<ellipse fill="none" stroke="black" cx="314.688" cy="-90" rx="27.0787" ry="18"/>
<text text-anchor="middle" x="314.688" y="-85.8" font-family="Times,serif" font-size="14.00">Area</text>
</g>
<!-- PostCode -->
<g id="node3" class="node"><title>PostCode</title>
<ellipse fill="none" stroke="black" cx="314.688" cy="-18" rx="44.0251" ry="18"/>
<text text-anchor="middle" x="314.688" y="-13.8" font-family="Times,serif" font-size="14.00">PostCode</text>
</g>
<!-- Area&#45;&gt;PostCode -->
<g id="edge2" class="edge"><title>Area&#45;&gt;PostCode</title>
<path fill="none" stroke="#a66570" d="M314.688,-63.6398C314.688,-57.348 314.688,-50.6053 314.688,-44.3156"/>
<ellipse fill="none" stroke="#a66570" cx="314.688" cy="-67.6966" rx="4" ry="4"/>
<ellipse fill="#a66570" stroke="#a66570" cx="314.688" cy="-40.1043" rx="4" ry="4"/>
</g>
<!-- Street -->
<g id="node9" class="node"><title>Street</title>
<ellipse fill="none" stroke="black" cx="407.688" cy="-18" rx="30.9706" ry="18"/>
<text text-anchor="middle" x="407.688" y="-13.8" font-family="Times,serif" font-size="14.00">Street</text>
</g>
<!-- Area&#45;&gt;Street -->
<g id="edge1" class="edge"><title>Area&#45;&gt;Street</title>
<path fill="none" stroke="#adca93" d="M338.682,-70.9398C351.728,-61.1201 367.889,-48.9558 381.291,-38.8684"/>
<ellipse fill="none" stroke="#adca93" cx="335.376" cy="-73.428" rx="4.00002" ry="4.00002"/>
<polygon fill="#adca93" stroke="#adca93" points="381.65,-38.5987 392.345,-36.1803 385.644,-35.5918 389.639,-32.5849 389.639,-32.5849 389.639,-32.5849 385.644,-35.5918 386.933,-28.9895 381.65,-38.5987 381.65,-38.5987"/>
</g>
<!-- RuralDistrict -->
<g id="node4" class="node"><title>RuralDistrict</title>
<ellipse fill="none" stroke="black" cx="202.688" cy="-90" rx="56.0614" ry="18"/>
<text text-anchor="middle" x="202.688" y="-85.8" font-family="Times,serif" font-size="14.00">RuralDistrict</text>
</g>
<!-- RuralPostCode -->
<g id="node6" class="node"><title>RuralPostCode</title>
<ellipse fill="none" stroke="black" cx="71.6877" cy="-18" rx="63.8202" ry="18"/>
<text text-anchor="middle" x="71.6877" y="-13.8" font-family="Times,serif" font-size="14.00">RuralPostCode</text>
</g>
<!-- RuralDistrict&#45;&gt;RuralPostCode -->
<g id="edge4" class="edge"><title>RuralDistrict&#45;&gt;RuralPostCode</title>
<path fill="none" stroke="#b75a33" d="M167.701,-70.3049C149.105,-60.3682 126.284,-48.1735 107.557,-38.1667"/>
<ellipse fill="none" stroke="#b75a33" cx="171.378" cy="-72.2696" rx="4.00002" ry="4.00002"/>
<ellipse fill="#b75a33" stroke="#b75a33" cx="103.863" cy="-36.1929" rx="4.00002" ry="4.00002"/>
</g>
<!-- RuralTown -->
<g id="node7" class="node"><title>RuralTown</title>
<ellipse fill="none" stroke="black" cx="202.688" cy="-18" rx="49.5382" ry="18"/>
<text text-anchor="middle" x="202.688" y="-13.8" font-family="Times,serif" font-size="14.00">RuralTown</text>
</g>
<!-- RuralDistrict&#45;&gt;RuralTown -->
<g id="edge3" class="edge"><title>RuralDistrict&#45;&gt;RuralTown</title>
<path fill="none" stroke="#00677c" d="M202.688,-63.6398C202.688,-58.0629 202.688,-52.1319 202.688,-46.4761"/>
<ellipse fill="none" stroke="#00677c" cx="202.688" cy="-67.6966" rx="4" ry="4"/>
<polygon fill="#00677c" stroke="#00677c" points="202.688,-46.1043 207.188,-36.1043 202.688,-41.1043 202.688,-36.1043 202.688,-36.1043 202.688,-36.1043 202.688,-41.1043 198.188,-36.1044 202.688,-46.1043 202.688,-46.1043"/>
</g>
<!-- RuralLga -->
<g id="node5" class="node"><title>RuralLga</title>
<ellipse fill="none" stroke="black" cx="207.688" cy="-162" rx="43.506" ry="18"/>
<text text-anchor="middle" x="207.688" y="-157.8" font-family="Times,serif" font-size="14.00">RuralLga</text>
</g>
<!-- RuralLga&#45;&gt;RuralDistrict -->
<g id="edge5" class="edge"><title>RuralLga&#45;&gt;RuralDistrict</title>
<path fill="none" stroke="#90f1f1" d="M205.876,-135.64C205.478,-130.063 205.054,-124.132 204.65,-118.476"/>
<ellipse fill="none" stroke="#90f1f1" cx="206.167" cy="-139.707" rx="4" ry="4"/>
<polygon fill="#90f1f1" stroke="#90f1f1" points="204.622,-118.079 208.398,-107.784 204.266,-113.092 203.909,-108.104 203.909,-108.104 203.909,-108.104 204.266,-113.092 199.421,-108.425 204.622,-118.079 204.622,-118.079"/>
</g>
<!-- State -->
<g id="node8" class="node"><title>State</title>
<ellipse fill="none" stroke="black" cx="253.688" cy="-234" rx="27.5804" ry="18"/>
<text text-anchor="middle" x="253.688" y="-229.8" font-family="Times,serif" font-size="14.00">State</text>
</g>
<!-- State&#45;&gt;RuralLga -->
<g id="edge7" class="edge"><title>State&#45;&gt;RuralLga</title>
<path fill="none" stroke="#9b02b9" d="M238.718,-210.221C234.141,-203.255 229.079,-195.551 224.394,-188.422"/>
<ellipse fill="none" stroke="#9b02b9" cx="241.053" cy="-213.773" rx="4.00002" ry="4.00002"/>
<polygon fill="#9b02b9" stroke="#9b02b9" points="224.218,-188.154 222.487,-177.326 221.472,-183.976 218.726,-179.797 218.726,-179.797 218.726,-179.797 221.472,-183.976 214.965,-182.269 224.218,-188.154 224.218,-188.154"/>
</g>
<!-- Town -->
<g id="node10" class="node"><title>Town</title>
<ellipse fill="none" stroke="black" cx="309.688" cy="-162" rx="30.2429" ry="18"/>
<text text-anchor="middle" x="309.688" y="-157.8" font-family="Times,serif" font-size="14.00">Town</text>
</g>
<!-- State&#45;&gt;Town -->
<g id="edge6" class="edge"><title>State&#45;&gt;Town</title>
<path fill="none" stroke="#923a64" d="M270.887,-211.501C277.187,-203.626 284.348,-194.675 290.788,-186.624"/>
<ellipse fill="none" stroke="#923a64" cx="268.338" cy="-214.688" rx="4.00002" ry="4.00002"/>
<polygon fill="#923a64" stroke="#923a64" points="290.926,-186.453 300.686,-181.455 294.049,-182.548 297.173,-178.644 297.173,-178.644 297.173,-178.644 294.049,-182.548 293.659,-175.833 290.926,-186.453 290.926,-186.453"/>
</g>
<!-- Town&#45;&gt;Area -->
<g id="edge8" class="edge"><title>Town&#45;&gt;Area</title>
<path fill="none" stroke="#63cb96" d="M311.499,-135.64C311.898,-130.063 312.321,-124.132 312.725,-118.476"/>
<ellipse fill="none" stroke="#63cb96" cx="311.209" cy="-139.707" rx="4" ry="4"/>
<polygon fill="#63cb96" stroke="#63cb96" points="312.753,-118.079 317.955,-108.425 313.11,-113.092 313.466,-108.104 313.466,-108.104 313.466,-108.104 313.11,-113.092 308.977,-107.784 312.753,-118.079 312.753,-118.079"/>
</g>
<!-- Zone -->
<g id="node11" class="node"><title>Zone</title>
<ellipse fill="none" stroke="black" cx="253.688" cy="-324.5" rx="28.0565" ry="18"/>
<text text-anchor="middle" x="253.688" y="-320.3" font-family="Times,serif" font-size="14.00">Zone</text>
</g>
<!-- Zone&#45;&gt;State -->
<g id="edge9" class="edge"><title>Zone&#45;&gt;State</title>
<path fill="none" stroke="#ac0b8b" d="M253.688,-298.189C253.688,-286.971 253.688,-273.752 253.688,-262.311"/>
<ellipse fill="none" stroke="#ac0b8b" cx="253.688" cy="-302.436" rx="4" ry="4"/>
<polygon fill="#ac0b8b" stroke="#ac0b8b" points="253.688,-262.011 258.188,-252.011 253.688,-257.011 253.688,-252.011 253.688,-252.011 253.688,-252.011 253.688,-257.011 249.188,-252.011 253.688,-262.011 253.688,-262.011"/>
</g>
</g>
</svg>
